<svg xmlns="http://www.w3.org/2000/svg" aria-hidden="true" style="position:absolute;width:0;height:0;overflow:hidden">
  <defs>
    <symbol id="phone" viewBox="0 0 32 32">
      <path d="M8.96 2.554a6.41 6.41 0 0 0-6.4 6.4v14.08a6.41 6.41 0 0 0 6.4 6.4h14.08a6.41 6.41 0 0 0 6.4-6.4V8.954a6.41 6.41 0 0 0-6.4-6.4H8.96zm2.564 5.147c.402.017.771.244.994.591l1.159 1.81a2.4 2.4 0 0 1 .082 2.435l-.938 1.334a1.28 1.28 0 0 0-.134 1.23c.265.634.779 1.607 1.691 2.52s1.886 1.426 2.52 1.691c.407.17.869.12 1.23-.134l1.334-.938a2.405 2.405 0 0 1 2.435.082l1.81 1.159c.348.223.574.592.591.994.099 2.281-1.669 3.205-2.183 3.205-.356 0-4.634.486-9.459-4.339s-4.339-9.103-4.339-9.459c0-.514.924-2.281 3.205-2.183z"/>
    </symbol>
    <symbol id="whatsapp" viewBox="0 0 32 32">
      <path d="M16 1.28C7.884 1.28 1.28 7.884 1.28 16c0 2.534.655 5.027 1.896 7.226l-1.873 6.682a.639.639 0 0 0 .771.794l6.973-1.727A14.728 14.728 0 0 0 16 30.721c8.116 0 14.72-6.604 14.72-14.72S24.116 1.281 16 1.281zm7.405 19.914c-.315.872-1.825 1.667-2.551 1.774-.652.095-1.476.136-2.381-.148a22.197 22.197 0 0 1-2.154-.787c-3.791-1.617-6.266-5.386-6.456-5.635S8.32 14.375 8.32 12.539 9.296 9.8 9.643 9.426c.347-.374.756-.467 1.008-.467s.504.003.724.013c.232.012.544-.088.851.641.315.748 1.071 2.584 1.164 2.771.095.187.157.405.032.654s-.188.404-.378.623-.397.486-.567.654c-.189.186-.386.388-.166.762s.979 1.596 2.102 2.585c1.443 1.271 2.661 1.665 3.039 1.852s.598.156.819-.093c.22-.25.945-1.09 1.196-1.463s.504-.312.851-.187c.347.124 2.205 1.027 2.582 1.213s.63.28.724.436c.095.155.095.902-.22 1.773z"/>
    </symbol>
    <symbol id="discord" viewBox="0 0 32 32">
      <path d="M26.64 6.893c-2.547-2.05-6.578-2.397-6.75-2.41a.638.638 0 0 0-.633.375c-.01.015-.098.218-.195.532 1.685.285 3.755.857 5.628 2.02a.64.64 0 1 1-.675 1.087c-3.22-1.998-7.24-2.098-8.015-2.098s-4.797.1-8.015 2.098a.64.64 0 0 1-.675-1.088c1.872-1.16 3.942-1.735 5.628-2.018a5.225 5.225 0 0 0-.193-.535.633.633 0 0 0-.635-.375c-.172.013-4.202.36-6.785 2.438-1.348 1.248-4.045 8.537-4.045 14.84 0 .113.03.22.085.317 1.86 3.27 6.937 4.125 8.095 4.162h.02a.643.643 0 0 0 .518-.262l1.17-1.61c-3.158-.815-4.77-2.2-4.862-2.282a.64.64 0 0 1 .847-.96c.037.035 3.007 2.555 8.848 2.555 5.85 0 8.82-2.53 8.85-2.555a.64.64 0 0 1 .902.06.637.637 0 0 1-.058.9c-.093.082-1.705 1.468-4.863 2.282l1.17 1.61a.64.64 0 0 0 .517.262h.02c1.157-.038 6.235-.892 8.095-4.162a.643.643 0 0 0 .085-.317c0-6.303-2.697-13.592-4.08-14.867zM11.84 19.2c-1.238 0-2.24-1.145-2.24-2.56s1.002-2.56 2.24-2.56c1.238 0 2.24 1.145 2.24 2.56s-1.002 2.56-2.24 2.56zm8.32 0c-1.238 0-2.24-1.145-2.24-2.56s1.003-2.56 2.24-2.56c1.238 0 2.24 1.145 2.24 2.56s-1.003 2.56-2.24 2.56z"/>
    </symbol>
    <symbol id="github" viewBox="0 0 32 32">
      <path d="M11.386 29.975a1.28 1.28 0 0 0 .774-1.175v-3.456c0-.126.01-.257.026-.39l-.026.006H9.856c-.96 0-1.792-.384-2.176-1.152-.448-.832-.64-2.24-1.792-3.008-.192-.128-.064-.32.32-.32.384.064 1.216.576 1.728 1.28.576.704 1.152 1.28 2.176 1.28 1.592 0 2.445-.08 2.958-.355.598-.889 1.425-1.565 2.29-1.565v-.016c-3.628-.116-5.945-1.322-7.024-3.184-2.346.027-4.388.259-5.553.452-.037-.209-.069-.42-.097-.632 1.15-.189 3.1-.414 5.341-.457a5.109 5.109 0 0 1-.186-.543 41.363 41.363 0 0 0-5.24.062c-.013-.212-.03-.424-.033-.639a41.97 41.97 0 0 1 5.132-.071 6.241 6.241 0 0 1-.083-.988c0-1.088.384-2.24 1.088-3.2-.32-1.088-.768-3.392.128-4.224 1.728 0 2.944.832 3.52 1.344 1.087-.449 2.303-.705 3.647-.705s2.56.256 3.584.704c.576-.512 1.792-1.344 3.52-1.344.96.896.448 3.2.128 4.224.704.96 1.088 2.048 1.024 3.2 0 .31-.029.609-.07.902a42.326 42.326 0 0 1 5.251.065c-.001.216-.021.426-.033.639a41.569 41.569 0 0 0-5.35-.057 5.293 5.293 0 0 1-.208.627c2.269.029 4.266.249 5.471.441-.028.212-.06.423-.097.632-1.224-.196-3.309-.425-5.683-.436-1.066 1.842-3.341 3.043-6.897 3.183v.02c1.664 0 3.2 2.496 3.2 4.224v3.456c0 .527.319.979.774 1.175 5.863-1.94 10.106-7.47 10.106-13.975 0-8.116-6.603-14.72-14.72-14.72S1.28 7.883 1.28 15.999c0 6.505 4.243 12.035 10.106 13.975z"/>
    </symbol>
    <symbol id="gmail" viewBox="0 0 32 32">
      <path d="M7.68 14.978V6.649l-.077-.057h-.006L5.85 5.299c-1.069-.794-2.592-.755-3.539.179a3.455 3.455 0 0 0-1.03 2.464v2.305l6.4 4.73zm16.64-.008v.008l6.4-4.73V7.943c0-.954-.384-1.824-1.011-2.451a2.67 2.67 0 0 0-3.471-.258L24.321 6.65v8.321zm-15.36.946 6.66 4.923a.64.64 0 0 0 .761 0l6.659-4.923V7.595L16 12.8 8.96 7.595v8.321zm15.36.653v9.671c0 .353.287.64.64.64h4.16a1.6 1.6 0 0 0 1.6-1.6V11.838l-6.4 4.731zm-16.64 0-6.4-4.731V25.28a1.6 1.6 0 0 0 1.6 1.6h4.16a.64.64 0 0 0 .64-.64v-9.671z"/>
    </symbol>
    <symbol id="linkedin" viewBox="0 0 32 32">
      <path d="M26.24 2.56H5.76a3.202 3.202 0 0 0-3.2 3.2v20.48c0 1.766 1.434 3.2 3.2 3.2h20.48c1.766 0 3.2-1.434 3.2-3.2V5.76c0-1.766-1.434-3.2-3.2-3.2zM10.88 12.8v12.16H7.04V12.8h3.84zM7.04 9.261c0-.896.768-1.581 1.92-1.581s1.875.685 1.92 1.581c0 .896-.717 1.619-1.92 1.619-1.152 0-1.92-.723-1.92-1.619zM24.96 24.96h-3.84v-6.4c0-1.28-.64-2.56-2.24-2.586h-.051c-1.549 0-2.189 1.318-2.189 2.586v6.4H12.8V12.8h3.84v1.638s1.235-1.638 3.718-1.638c2.541 0 4.602 1.747 4.602 5.286v6.874z"/>
    </symbol>
    <symbol id="telegram" viewBox="0 0 32 32">
      <path d="M16 1.28c8.13 0 14.72 6.59 14.72 14.72S24.13 30.72 16 30.72 1.28 24.13 1.28 16 7.87 1.28 16 1.28zM21.078 22c.271-.831 1.539-9.11 1.696-10.741.047-.494-.109-.822-.415-.969-.37-.178-.918-.089-1.553.14-.872.314-12.015 5.046-12.659 5.32-.611.259-1.188.542-1.188.952 0 .288.171.45.642.618.49.175 1.725.549 2.454.75.702.194 1.501.026 1.949-.253.475-.295 5.955-3.962 6.349-4.284s.707.09.385.412c-.321.321-4.083 3.972-4.579 4.478-.602.614-.175 1.25.229 1.505.461.291 3.78 2.516 4.28 2.874s1.007.519 1.471.519c.464 0 .708-.611.94-1.321z"/>
    </symbol>
  </defs>
</svg>